<?xml version="1.0" encoding="UTF-8" standalone="no"?>
<!-- Created with Inkscape (http://www.inkscape.org/) -->

<svg
   sodipodi:docname="gyrate-along-b-field.svg"
   width="1920"
   height="1080"
   viewBox="0 0 1920 1080"
   version="1.1"
   id="svg5"
   inkscape:version="1.1.2 (0a00cf5339, 2022-02-04)"
   inkscape:export-filename="/home/huntfeng/research/magnetic-nozzle/thesis/img/gyrate-along-b-field.png"
   inkscape:export-xdpi="96"
   inkscape:export-ydpi="96"
   xmlns:inkscape="http://www.inkscape.org/namespaces/inkscape"
   xmlns:sodipodi="http://sodipodi.sourceforge.net/DTD/sodipodi-0.dtd"
   xmlns:xlink="http://www.w3.org/1999/xlink"
   xmlns="http://www.w3.org/2000/svg"
   xmlns:svg="http://www.w3.org/2000/svg">
  <sodipodi:namedview
     id="namedview7"
     pagecolor="#ffffff"
     bordercolor="#000000"
     borderopacity="0.25"
     inkscape:showpageshadow="2"
     inkscape:pageopacity="0.0"
     inkscape:pagecheckerboard="0"
     inkscape:deskcolor="#d1d1d1"
     inkscape:document-units="px"
     showgrid="false"
     inkscape:zoom="0.32604167"
     inkscape:cx="602.68371"
     inkscape:cy="493.80192"
     inkscape:window-width="1920"
     inkscape:window-height="1011"
     inkscape:window-x="0"
     inkscape:window-y="32"
     inkscape:window-maximized="1"
     inkscape:current-layer="layer1"
     inkscape:pageshadow="2" />
  <defs
     id="defs2">
    <marker
       style="overflow:visible"
       id="marker6210"
       refX="0.0"
       refY="0.0"
       orient="auto"
       inkscape:stockid="TriangleOutL"
       inkscape:isstock="true">
      <path
         transform="scale(0.8)"
         style="fill-rule:evenodd;fill:context-stroke;stroke:context-stroke;stroke-width:1.0pt"
         d="M 5.77,0.0 L -2.88,5.0 L -2.88,-5.0 L 5.77,0.0 z "
         id="path6208" />
    </marker>
    <marker
       style="overflow:visible"
       id="TriangleOutL"
       refX="0.0"
       refY="0.0"
       orient="auto"
       inkscape:stockid="TriangleOutL"
       inkscape:isstock="true">
      <path
         transform="scale(0.8)"
         style="fill-rule:evenodd;fill:context-stroke;stroke:context-stroke;stroke-width:1.0pt"
         d="M 5.77,0.0 L -2.88,5.0 L -2.88,-5.0 L 5.77,0.0 z "
         id="path5976" />
    </marker>
    <marker
       style="overflow:visible;"
       id="marker6192"
       refX="0.0"
       refY="0.0"
       orient="auto"
       inkscape:stockid="Arrow1Lend"
       inkscape:isstock="true">
      <path
         transform="scale(0.8) rotate(180) translate(12.5,0)"
         style="fill-rule:evenodd;fill:context-stroke;stroke:context-stroke;stroke-width:1.0pt;"
         d="M 0.0,0.0 L 5.0,-5.0 L -12.5,0.0 L 5.0,5.0 L 0.0,0.0 z "
         id="path6190" />
    </marker>
    <marker
       style="overflow:visible;"
       id="Arrow1Lend"
       refX="0.0"
       refY="0.0"
       orient="auto"
       inkscape:stockid="Arrow1Lend"
       inkscape:isstock="true">
      <path
         transform="scale(0.8) rotate(180) translate(12.5,0)"
         style="fill-rule:evenodd;fill:context-stroke;stroke:context-stroke;stroke-width:1.0pt;"
         d="M 0.0,0.0 L 5.0,-5.0 L -12.5,0.0 L 5.0,5.0 L 0.0,0.0 z "
         id="path5837" />
    </marker>
    <marker
       style="overflow:visible"
       id="Arrow1Lstart"
       refX="0.0"
       refY="0.0"
       orient="auto"
       inkscape:stockid="Arrow1Lstart"
       inkscape:isstock="true">
      <path
         transform="scale(0.8) translate(12.5,0)"
         style="fill-rule:evenodd;fill:context-stroke;stroke:context-stroke;stroke-width:1.0pt"
         d="M 0.0,0.0 L 5.0,-5.0 L -12.5,0.0 L 5.0,5.0 L 0.0,0.0 z "
         id="path5834" />
    </marker>
    <inkscape:path-effect
       effect="spiro"
       id="path-effect5017"
       is_visible="true"
       lpeversion="1" />
    <rect
       x="784.10914"
       y="132.25433"
       width="266.59398"
       height="227.43969"
       id="rect13072" />
    <inkscape:path-effect
       effect="spiro"
       id="path-effect11434"
       is_visible="true"
       lpeversion="1" />
    <g
       id="g7718">
      <symbol
         overflow="visible"
         id="symbol2249">
        <path
           style="stroke:none;"
           d=""
           id="path6084" />
      </symbol>
      <symbol
         overflow="visible"
         id="symbol11">
        <path
           style="stroke:none;"
           d="M 2.765625 -3.734375 L 2.765625 -6.375 L 4.578125 -6.375 C 5.59375 -6.375 5.765625 -5.578125 5.765625 -5.125 C 5.765625 -4.359375 5.296875 -3.734375 4.328125 -3.734375 Z M 5.46875 -3.5625 C 6.546875 -3.765625 7.1875 -4.359375 7.1875 -5.125 C 7.1875 -6.046875 6.3125 -6.84375 4.71875 -6.84375 L 0.390625 -6.84375 L 0.390625 -6.375 L 1.46875 -6.375 L 1.46875 -0.46875 L 0.390625 -0.46875 L 0.390625 0 L 5.015625 0 C 6.671875 0 7.5 -0.875 7.5 -1.859375 C 7.5 -2.8125 6.65625 -3.484375 5.46875 -3.5625 Z M 4.609375 -0.46875 L 2.765625 -0.46875 L 2.765625 -3.375 L 4.703125 -3.375 C 4.90625 -3.375 5.375 -3.375 5.71875 -2.953125 C 6.046875 -2.53125 6.046875 -1.96875 6.046875 -1.859375 C 6.046875 -1.75 6.046875 -0.46875 4.609375 -0.46875 Z M 4.609375 -0.46875 "
           id="path70" />
      </symbol>
    </g>
    <g
       id="g6877">
      <symbol
         overflow="visible"
         id="symbol4541">
        <path
           style="stroke:none;"
           d=""
           id="path7974" />
      </symbol>
      <symbol
         overflow="visible"
         id="symbol3729">
        <path
           style="stroke:none;"
           d="M 1.03125 21.703125 C 1.359375 21.6875 1.53125 21.46875 1.53125 21.21875 C 1.53125 20.890625 1.28125 20.71875 1.046875 20.71875 C 0.8125 20.71875 0.5625 20.875 0.5625 21.21875 C 0.5625 21.734375 1.0625 22.15625 1.671875 22.15625 C 3.1875 22.15625 3.75 19.8125 4.453125 16.921875 C 5.21875 13.78125 5.875 10.59375 6.40625 7.390625 C 6.78125 5.28125 7.140625 3.28125 7.484375 2 C 7.609375 1.5 7.9375 0.21875 8.328125 0.21875 C 8.640625 0.21875 8.890625 0.40625 8.9375 0.453125 C 8.609375 0.46875 8.4375 0.6875 8.4375 0.9375 C 8.4375 1.265625 8.6875 1.421875 8.90625 1.421875 C 9.15625 1.421875 9.40625 1.28125 9.40625 0.921875 C 9.40625 0.390625 8.859375 0 8.3125 0 C 7.5625 0 7 1.09375 6.453125 3.125 C 6.421875 3.234375 5.0625 8.234375 3.96875 14.75 C 3.703125 16.28125 3.421875 17.9375 3.09375 19.328125 C 2.90625 20.0625 2.453125 21.9375 1.640625 21.9375 C 1.28125 21.9375 1.046875 21.703125 1.03125 21.703125 Z M 1.03125 21.703125 "
           id="path6871" />
      </symbol>
      <symbol
         overflow="visible"
         id="symbol6988">
        <path
           style="stroke:none;"
           d=""
           id="path749" />
      </symbol>
      <symbol
         overflow="visible"
         id="symbol3155">
        <path
           style="stroke:none;"
           d="M 3.65625 -3.984375 L 4.515625 -3.984375 C 4.71875 -3.984375 4.8125 -3.984375 4.8125 -4.1875 C 4.8125 -4.296875 4.71875 -4.296875 4.546875 -4.296875 L 3.71875 -4.296875 L 3.921875 -5.4375 C 3.96875 -5.640625 4.109375 -6.34375 4.171875 -6.46875 C 4.25 -6.65625 4.421875 -6.8125 4.640625 -6.8125 C 4.671875 -6.8125 4.9375 -6.8125 5.125 -6.625 C 4.6875 -6.59375 4.578125 -6.234375 4.578125 -6.09375 C 4.578125 -5.859375 4.765625 -5.734375 4.953125 -5.734375 C 5.21875 -5.734375 5.5 -5.96875 5.5 -6.34375 C 5.5 -6.796875 5.046875 -7.03125 4.640625 -7.03125 C 4.296875 -7.03125 3.671875 -6.84375 3.375 -5.859375 C 3.3125 -5.65625 3.28125 -5.546875 3.046875 -4.296875 L 2.359375 -4.296875 C 2.15625 -4.296875 2.046875 -4.296875 2.046875 -4.109375 C 2.046875 -3.984375 2.140625 -3.984375 2.328125 -3.984375 L 2.984375 -3.984375 L 2.25 -0.046875 C 2.0625 0.921875 1.890625 1.828125 1.375 1.828125 C 1.328125 1.828125 1.09375 1.828125 0.890625 1.640625 C 1.359375 1.609375 1.453125 1.25 1.453125 1.109375 C 1.453125 0.875 1.265625 0.75 1.078125 0.75 C 0.8125 0.75 0.53125 0.984375 0.53125 1.359375 C 0.53125 1.796875 0.96875 2.046875 1.375 2.046875 C 1.921875 2.046875 2.328125 1.453125 2.5 1.078125 C 2.828125 0.453125 3.046875 -0.75 3.0625 -0.828125 Z M 3.65625 -3.984375 "
           id="path7452" />
      </symbol>
      <symbol
         overflow="visible"
         id="symbol889">
        <path
           style="stroke:none;"
           d="M 3.328125 -3.015625 C 3.390625 -3.265625 3.625 -4.1875 4.3125 -4.1875 C 4.359375 -4.1875 4.609375 -4.1875 4.8125 -4.0625 C 4.53125 -4 4.34375 -3.765625 4.34375 -3.515625 C 4.34375 -3.359375 4.453125 -3.171875 4.71875 -3.171875 C 4.9375 -3.171875 5.25 -3.34375 5.25 -3.75 C 5.25 -4.265625 4.671875 -4.40625 4.328125 -4.40625 C 3.75 -4.40625 3.40625 -3.875 3.28125 -3.65625 C 3.03125 -4.3125 2.5 -4.40625 2.203125 -4.40625 C 1.171875 -4.40625 0.59375 -3.125 0.59375 -2.875 C 0.59375 -2.765625 0.703125 -2.765625 0.71875 -2.765625 C 0.796875 -2.765625 0.828125 -2.796875 0.84375 -2.875 C 1.1875 -3.9375 1.84375 -4.1875 2.1875 -4.1875 C 2.375 -4.1875 2.71875 -4.09375 2.71875 -3.515625 C 2.71875 -3.203125 2.546875 -2.546875 2.1875 -1.140625 C 2.03125 -0.53125 1.671875 -0.109375 1.234375 -0.109375 C 1.171875 -0.109375 0.953125 -0.109375 0.734375 -0.234375 C 0.984375 -0.296875 1.203125 -0.5 1.203125 -0.78125 C 1.203125 -1.046875 0.984375 -1.125 0.84375 -1.125 C 0.53125 -1.125 0.296875 -0.875 0.296875 -0.546875 C 0.296875 -0.09375 0.78125 0.109375 1.21875 0.109375 C 1.890625 0.109375 2.25 -0.59375 2.265625 -0.640625 C 2.390625 -0.28125 2.75 0.109375 3.34375 0.109375 C 4.375 0.109375 4.9375 -1.171875 4.9375 -1.421875 C 4.9375 -1.53125 4.859375 -1.53125 4.828125 -1.53125 C 4.734375 -1.53125 4.71875 -1.484375 4.6875 -1.421875 C 4.359375 -0.34375 3.6875 -0.109375 3.375 -0.109375 C 2.984375 -0.109375 2.828125 -0.421875 2.828125 -0.765625 C 2.828125 -0.984375 2.875 -1.203125 2.984375 -1.640625 Z M 3.328125 -3.015625 "
           id="path7791" />
      </symbol>
      <symbol
         overflow="visible"
         id="symbol4389">
        <path
           style="stroke:none;"
           d="M 5.140625 -6.8125 C 5.140625 -6.8125 5.140625 -6.921875 5.015625 -6.921875 C 4.859375 -6.921875 3.921875 -6.828125 3.75 -6.8125 C 3.671875 -6.796875 3.609375 -6.75 3.609375 -6.625 C 3.609375 -6.5 3.703125 -6.5 3.84375 -6.5 C 4.328125 -6.5 4.34375 -6.4375 4.34375 -6.328125 L 4.3125 -6.125 L 3.71875 -3.765625 C 3.53125 -4.140625 3.25 -4.40625 2.796875 -4.40625 C 1.640625 -4.40625 0.40625 -2.9375 0.40625 -1.484375 C 0.40625 -0.546875 0.953125 0.109375 1.71875 0.109375 C 1.921875 0.109375 2.421875 0.0625 3.015625 -0.640625 C 3.09375 -0.21875 3.453125 0.109375 3.921875 0.109375 C 4.28125 0.109375 4.5 -0.125 4.671875 -0.4375 C 4.828125 -0.796875 4.96875 -1.40625 4.96875 -1.421875 C 4.96875 -1.53125 4.875 -1.53125 4.84375 -1.53125 C 4.75 -1.53125 4.734375 -1.484375 4.703125 -1.34375 C 4.53125 -0.703125 4.359375 -0.109375 3.953125 -0.109375 C 3.671875 -0.109375 3.65625 -0.375 3.65625 -0.5625 C 3.65625 -0.8125 3.671875 -0.875 3.703125 -1.046875 Z M 3.078125 -1.1875 C 3.015625 -1 3.015625 -0.984375 2.875 -0.8125 C 2.4375 -0.265625 2.03125 -0.109375 1.75 -0.109375 C 1.25 -0.109375 1.109375 -0.65625 1.109375 -1.046875 C 1.109375 -1.546875 1.421875 -2.765625 1.65625 -3.234375 C 1.96875 -3.8125 2.40625 -4.1875 2.8125 -4.1875 C 3.453125 -4.1875 3.59375 -3.375 3.59375 -3.3125 C 3.59375 -3.25 3.578125 -3.1875 3.5625 -3.140625 Z M 3.078125 -1.1875 "
           id="path102" />
      </symbol>
      <symbol
         overflow="visible"
         id="symbol8425">
        <path
           style="stroke:none;"
           d=""
           id="path8822" />
      </symbol>
      <symbol
         overflow="visible"
         id="symbol6530">
        <path
           style="stroke:none;"
           d="M 3.296875 2.390625 C 3.296875 2.359375 3.296875 2.34375 3.125 2.171875 C 1.890625 0.921875 1.5625 -0.96875 1.5625 -2.5 C 1.5625 -4.234375 1.9375 -5.96875 3.171875 -7.203125 C 3.296875 -7.328125 3.296875 -7.34375 3.296875 -7.375 C 3.296875 -7.453125 3.265625 -7.484375 3.203125 -7.484375 C 3.09375 -7.484375 2.203125 -6.796875 1.609375 -5.53125 C 1.109375 -4.4375 0.984375 -3.328125 0.984375 -2.5 C 0.984375 -1.71875 1.09375 -0.515625 1.640625 0.625 C 2.25 1.84375 3.09375 2.5 3.203125 2.5 C 3.265625 2.5 3.296875 2.46875 3.296875 2.390625 Z M 3.296875 2.390625 "
           id="path2937" />
      </symbol>
      <symbol
         overflow="visible"
         id="symbol3979">
        <path
           style="stroke:none;"
           d="M 2.875 -2.5 C 2.875 -3.265625 2.765625 -4.46875 2.21875 -5.609375 C 1.625 -6.828125 0.765625 -7.484375 0.671875 -7.484375 C 0.609375 -7.484375 0.5625 -7.4375 0.5625 -7.375 C 0.5625 -7.34375 0.5625 -7.328125 0.75 -7.140625 C 1.734375 -6.15625 2.296875 -4.578125 2.296875 -2.5 C 2.296875 -0.78125 1.9375 0.96875 0.703125 2.21875 C 0.5625 2.34375 0.5625 2.359375 0.5625 2.390625 C 0.5625 2.453125 0.609375 2.5 0.671875 2.5 C 0.765625 2.5 1.671875 1.8125 2.25 0.546875 C 2.765625 -0.546875 2.875 -1.65625 2.875 -2.5 Z M 2.875 -2.5 "
           id="path3289" />
      </symbol>
    </g>
    <g
       id="g2231">
      <symbol
         overflow="visible"
         id="symbol1083">
        <path
           style="stroke:none;"
           d=""
           id="path9336" />
      </symbol>
      <symbol
         overflow="visible"
         id="symbol5046">
        <path
           style="stroke:none;"
           d="M 2.765625 -3.734375 L 2.765625 -6.375 L 4.578125 -6.375 C 5.59375 -6.375 5.765625 -5.578125 5.765625 -5.125 C 5.765625 -4.359375 5.296875 -3.734375 4.328125 -3.734375 Z M 5.46875 -3.5625 C 6.546875 -3.765625 7.1875 -4.359375 7.1875 -5.125 C 7.1875 -6.046875 6.3125 -6.84375 4.71875 -6.84375 L 0.390625 -6.84375 L 0.390625 -6.375 L 1.46875 -6.375 L 1.46875 -0.46875 L 0.390625 -0.46875 L 0.390625 0 L 5.015625 0 C 6.671875 0 7.5 -0.875 7.5 -1.859375 C 7.5 -2.8125 6.65625 -3.484375 5.46875 -3.5625 Z M 4.609375 -0.46875 L 2.765625 -0.46875 L 2.765625 -3.375 L 4.703125 -3.375 C 4.90625 -3.375 5.375 -3.375 5.71875 -2.953125 C 6.046875 -2.53125 6.046875 -1.96875 6.046875 -1.859375 C 6.046875 -1.75 6.046875 -0.46875 4.609375 -0.46875 Z M 4.609375 -0.46875 "
           id="path6020" />
      </symbol>
    </g>
    <g
       id="g2523">
      <symbol
         overflow="visible"
         id="symbol502">
        <path
           style="stroke:none;"
           d=""
           id="path7609" />
      </symbol>
      <symbol
         overflow="visible"
         id="symbol9767">
        <path
           style="stroke:none;"
           d="M 5.046875 -3.75 C 5.109375 -3.890625 5.140625 -3.953125 5.78125 -3.953125 L 5.78125 -4.421875 C 5.53125 -4.40625 5.25 -4.390625 5 -4.390625 C 4.75 -4.390625 4.296875 -4.421875 4.09375 -4.421875 L 4.09375 -3.953125 C 4.28125 -3.953125 4.5625 -3.921875 4.5625 -3.84375 C 4.5625 -3.84375 4.5625 -3.8125 4.515625 -3.734375 L 3.359375 -1.234375 L 2.09375 -3.953125 L 2.625 -3.953125 L 2.625 -4.421875 C 2.296875 -4.40625 1.40625 -4.390625 1.390625 -4.390625 C 1.109375 -4.390625 0.671875 -4.421875 0.265625 -4.421875 L 0.265625 -3.953125 L 0.890625 -3.953125 L 2.640625 -0.203125 C 2.765625 0.046875 2.890625 0.046875 3.015625 0.046875 C 3.1875 0.046875 3.296875 0.015625 3.390625 -0.203125 Z M 5.046875 -3.75 "
           id="path5907" />
      </symbol>
      <symbol
         overflow="visible"
         id="symbol4581">
        <path
           style="stroke:none;"
           d=""
           id="path367" />
      </symbol>
      <symbol
         overflow="visible"
         id="symbol2632">
        <path
           style="stroke:none;"
           d="M 1.4375 -4.96875 C 1.4375 -5.0625 1.4375 -5.21875 1.265625 -5.21875 C 1.09375 -5.21875 1.09375 -5.046875 1.09375 -4.921875 L 1.09375 1.4375 C 1.09375 1.5625 1.09375 1.734375 1.265625 1.734375 C 1.4375 1.734375 1.4375 1.578125 1.4375 1.46875 Z M 2.96875 -4.921875 C 2.96875 -5.046875 2.96875 -5.21875 2.796875 -5.21875 C 2.640625 -5.21875 2.640625 -5.0625 2.640625 -4.96875 L 2.640625 1.46875 C 2.640625 1.578125 2.640625 1.734375 2.796875 1.734375 C 2.96875 1.734375 2.96875 1.5625 2.96875 1.4375 Z M 2.96875 -4.921875 "
           id="path9866" />
      </symbol>
    </g>
  </defs>
  <g
     inkscape:label="Layer 1"
     inkscape:groupmode="layer"
     id="layer1">
    <path
       d="M 65.607733,955.24971 C 252.42802,737.16833 498.59298,570.43177 770.42155,477.85285 1042.2501,385.27521 1339.0134,367.10472 1620.1056,425.82767 c 54.413,11.36743 108.2379,25.55069 161.1871,42.4742"
       style="fill:none;stroke:#000000;stroke-width:4.80472;stroke-dasharray:none;stroke-opacity:1;marker-end:url(#TriangleOutL);paint-order:normal"
       id="path11432" />
    <path
       d="m 310.72047,723.83524 c -8.79103,-14.57592 -19.77462,-27.14988 -27.73123,-32.93956 -7.95502,-5.78808 -12.58517,-4.62373 -11.34235,2.49526 1.24442,7.11738 8.07673,20.29192 18.94822,32.82103 10.87148,12.52911 24.69305,24.71867 36.65199,30.74859 11.96055,6.02993 20.8733,6.16286 24.97333,-0.77035 4.09842,-6.93322 2.50967,-20.49212 -3.44178,-35.4348 -5.95304,-14.94108 -16.06858,-30.86712 -25.4618,-41.57203 -9.39323,-10.70331 -17.73743,-15.87959 -20.91334,-13.85361 -3.17272,2.02599 -1.01701,11.195 6.17725,23.16675 7.19267,11.97176 19.27814,26.37471 31.80725,36.70005 12.5275,10.32374 24.49766,16.5939 32.62565,15.2694 8.12638,-1.3245 11.6178,-10.09792 9.67028,-23.07065 -1.94431,-12.97275 -9.29873,-29.65793 -18.00809,-43.89912 -8.70614,-14.2428 -18.80085,-25.36732 -25.40093,-29.17906 -6.59848,-3.81015 -10.11395,0.37637 -7.24072,9.38201 2.87323,9.00565 11.3968,23.07707 22.61582,35.84481 11.2158,12.76934 24.38234,24.07004 35.29065,28.50479 10.90832,4.43315 18.98345,1.8354 21.50112,-7.11899 2.52087,-8.95599 -0.85845,-23.66164 -7.33681,-39.12643 -6.47675,-15.46639 -16.37126,-30.81587 -24.86922,-40.05694 -8.49795,-9.24267 -15.29502,-12.10788 -16.90139,-7.86052 -1.60638,4.24577 1.60637,15.84276 9.91533,28.75945 8.31057,12.91508 20.68752,27.286 32.69771,36.65839 12.01019,9.37401 23.40859,13.3299 30.08235,9.80004 6.67375,-3.52827 7.947,-13.93209 4.99371,-28.21171 -2.95492,-14.27802 -10.70813,-31.51575 -19.3294,-44.90491 -8.62126,-13.38914 -17.81269,-22.55014 -23.06424,-24.08925 -5.24996,-1.54072 -6.34063,4.59331 -2.16853,15.36709 4.17209,10.77538 13.55251,25.86861 24.85159,38.51622 11.29911,12.64603 24.23982,22.43324 34.06067,24.84841 9.81763,2.41837 15.62814,-2.02599 16.85015,-12.86063 1.21879,-10.83464 -3.11827,-27.02654 -9.86409,-42.66591 -6.74262,-15.63935 -16.1791,-29.99105 -23.66324,-37.45597 -7.48576,-7.46655 -13.50126,-7.33201 -13.55893,-0.86166 -0.0608,6.47196 5.15868,19.49275 14.11627,33.16857 8.9576,13.67585 21.45468,27.57429 32.90912,35.46524 11.45285,7.88936 20.92295,10.11234 26.23857,4.43956 5.31562,-5.67277 5.24035,-18.24832 1.52311,-33.56255 -3.71886,-15.31425 -11.64184,-32.54077 -19.74741,-44.84886 -8.10716,-12.3097 -16.11502,-19.34059 -19.98603,-18.56863 -3.87259,0.77195 -4.0856,9.69592 1.35493,21.94795 5.43895,12.25203 15.63457,27.81131 26.78471,39.96086 11.15016,12.14792 23.23242,20.29993 31.8617,20.66669 8.63247,0.36675 12.9311,-6.59689 13.04641,-19.16282 0.12008,-12.56755 -4.70703,-29.97505 -11.74113,-45.2925 -7.0341,-15.31903 -16.03495,-28.11241 -22.53575,-33.41522 -6.49917,-5.3044 -10.24365,-2.95649 -8.99442,5.64716 1.25082,8.60365 7.5338,23.21 16.88378,37.29423 9.34838,14.08583 21.55397,27.20592 32.17881,33.49209 10.62483,6.28778 18.66633,6.04113 22.74074,-1.77615 4.07599,-7.82047 2.90364,-22.37556 -1.33732,-38.40251 -4.24257,-16.02694 -12.08868,-32.80822 -19.53759,-43.67009 -7.44732,-10.86187 -15.02755,-15.10764 -17.54683,-11.89968 -2.52248,3.21115 -0.56537,14.0554 5.72402,27.58869 6.28936,13.53489 16.79568,29.34563 27.79369,40.43491 10.99801,11.08929 21.54276,17.57727 29.01089,15.74346 7.46814,-1.8354 10.43586,-11.2959 9.65909,-25.38012 -0.77516,-14.08423 -6.06676,-32.09072 -12.9327,-46.80598 -6.86594,-14.71364 -15.05959,-25.71325 -20.43928,-28.75463 -5.37648,-3.04138 -7.71958,1.97793 -5.35085,12.57235 2.36713,10.59601 9.44768,26.45638 18.96102,40.57103 9.51175,14.11628 21.23846,26.03837 30.96321,30.43951 9.72476,4.40272 16.42414,1.53591 19.40786,-8.35701 2.98693,-9.89452 1.36295,-26.2626 -3.45299,-42.5554 -4.81913,-16.2928 -12.65403,-32.05387 -19.49915,-41.01948 -6.84671,-8.96561 -12.44582,-10.86508 -13.7495,-5.26758 -1.30368,5.59751 1.80177,18.53662 8.70294,33.03245 6.90119,14.49583 17.46516,30.10637 27.96667,39.95443 10.49832,9.84968 19.89314,14.01537 26.269,9.89292 6.37586,-4.12245 8.22729,-15.97409 6.77306,-31.29632 -1.45583,-15.32386 -6.97806,-33.49851 -13.51089,-47.21278 -6.5344,-13.71428 -13.84077,-22.56456 -18.1378,-23.17476 -4.29541,-0.61181 -6.06996,7.45532 -2.58334,19.77462 3.48663,12.3209 11.38878,28.9212 21.09592,42.50735 9.70874,13.58614 20.3512,24.07164 29.16304,26.35708 8.81346,2.28544 14.29885,-3.27361 16.36967,-15.09643 2.06925,-11.82282 -0.20819,-29.39687 -5.13303,-45.63361 -4.92645,-16.23515 -12.3129,-30.67013 -18.33001,-37.56649 -6.0171,-6.89638 -10.42944,-6.03633 -10.66647,1.88503 -0.24023,7.92299 3.77491,22.6879 11.06686,37.78271 7.29357,15.09484 17.71821,30.05672 27.62234,38.32245 9.90412,8.26891 18.18906,9.86568 23.58156,3.44338 5.39249,-6.42231 6.9364,-20.56741 4.73104,-36.7577 -2.20056,-16.19351 -7.77242,-34.05905 -13.86161,-46.38476 -6.08918,-12.32731 -13.28985,-18.32999 -16.55386,-16.35846 -3.2608,1.96993 -3.11026,12.15753 1.10349,25.9727 4.21214,13.81677 12.43941,30.84949 21.94634,43.66849 9.50855,12.81899 19.30218,21.27851 27.23636,21.27691 7.93259,-0.001 12.38015,-8.23851 13.72228,-21.775 1.33892,-13.53489 -1.37095,-31.91455 -6.23813,-47.67882 -4.86558,-15.76429 -11.70109,-28.45836 -16.89498,-33.03885 -5.1923,-4.5789 -9.34519,-0.55094 -8.52038,9.54698 0.82321,10.09952 5.79129,26.26739 13.53969,41.43429 7.75002,15.16689 17.56286,29.06054 26.82635,35.44441 9.2651,6.38226 16.52984,5.24515 21.0799,-3.41455 4.55328,-8.65971 5.36527,-24.56652 2.86362,-41.27734 -2.50166,-16.71082 -8.20806,-33.75316 -13.96892,-44.23706 -5.75925,-10.48228 -11.34875,-14.08582 -13.68385,-9.579 -2.33508,4.50683 -1.27964,17.01351 3.45941,31.99302 4.73746,14.98272 13.08645,31.99463 22.28108,43.65728 9.19463,11.66265 18.14903,17.76624 25.27763,15.3783 7.127,-2.38955 11.49129,-13.2482 12.02621,-28.22292 0.53652,-14.97631 -2.65221,-33.65225 -7.3416,-48.52765 -4.68942,-14.87381 -11.6963,-25.18474 -16.14867,-27.1867 -4.45397,-2.00357 -6.74743,4.53245 -5.18109,16.59869 1.56954,12.06466 7.0229,29.31199 14.81294,44.26107 7.79005,14.9507 17.0519,27.25237 25.68281,31.49653 8.62773,4.24258 15.92932,0.19861 19.60642,-10.62323 3.67572,-10.82023 3.41615,-27.93623 0.76236,-44.75274 -2.65062,-16.81812 -8.11036,-32.64326 -13.3203,-41.06434 -5.2098,-8.42267 -10.84733,-8.93678 -12.2744,-1.92028 -1.43024,7.01489 0.58622,21.53155 5.94021,37.21094 5.35563,15.681 13.5573,32.12116 22.38044,42.2575 8.823,10.13796 17.93602,13.55091 24.28302,8.63409 6.34701,-4.91523 9.23792,-17.72941 9.36118,-33.78679 0.12173,-16.05737 -3.24953,-34.63081 -7.93093,-48.12727 -4.67824,-13.49805 -10.47758,-21.51232 -14.20274,-20.90853 -3.72366,0.6022 -5.20031,9.83206 -3.05907,23.58636 2.1429,13.75432 7.90862,31.63747 15.63134,45.94273 7.72284,14.30684 17.23618,24.58735 25.31129,26.35868 8.07512,1.77134 13.76868,-4.66858 16.86934,-17.36585 3.09913,-12.69726 2.55931,-30.97443 -0.13606,-47.46422 -2.69716,-16.49139 -8.52198,-30.52598 -13.31396,-36.53668 -4.79021,-6.0107 -8.7766,-3.75409 -9.52615,5.60231 -0.74955,9.35798 1.82904,25.5611 7.40405,41.61045 5.57514,16.04937 14.05223,31.4581 22.63507,39.59569 8.57967,8.13599 16.22241,9.11937 21.94803,1.84341 5.7288,-7.27594 8.1295,-22.18978 7.97248,-38.94224 -0.1601,-16.75244 -3.53619,-34.72531 -7.92777,-46.54492 -4.39465,-11.8196 -9.62538,-17.1192 -12.72921,-13.87121 -3.10547,3.24958 -4.51643,15.20853 -1.69933,30.26972 2.81395,15.0628 9.06016,33.00042 16.87264,46.1205 7.81248,13.12008 16.23501,21.37458 23.76083,20.69713 7.52592,-0.67907 12.62529,-9.83205 15.28702,-24.12769 2.66183,-14.29565 1.99243,-33.17498 -0.94328,-48.85599 -2.93732,-15.6826 -7.99987,-27.70081 -12.2937,-31.18583 -4.297,-3.48342 -7.63617,1.69927 -7.85248,13.19216 -0.21774,11.49448 2.7643,28.98046 8.45638,44.96415 5.69044,15.9837 13.98971,29.97665 22.18177,35.98575 8.1936,6.0107 15.2452,4.09523 20.4776,-5.41332 5.2339,-9.50854 7.3192,-26.17291 6.9813,-43.20082 -0.3396,-17.02633 -3.6613,-33.91652 -7.7821,-43.71976 -4.1207,-9.80321 -9.7455,-11.96213 -12.2569,-6.06674 -2.5096,5.89538 -2.6057,19.86271 0.5223,35.88485 3.1262,16.02213 9.4507,33.62662 17.0871,45.30528 7.6331,11.67708 15.5625,17.313 22.6366,14.13869 7.0758,-3.17271 11.7508,-14.85458 14.0955,-30.40746 2.3462,-15.55288 1.515,-34.50109 -1.3487,-49.00013 -2.8634,-14.49904 -7.6329,-24.11007 -11.5217,-24.93649 -3.8869,-0.82641 -7.4552,7.35122 -7.0533,20.70033 0.4037,13.34911 3.964,31.60865 9.9603,46.99176 5.9931,15.3831 13.5893,27.64955 21.4546,31.31875 7.8621,3.6708 14.4702,-1.14993 19.331,-12.68606 4.8624,-11.53773 6.9748,-29.45132 6.2413,-46.30146 -0.7303,-16.85176 -4.2361,-32.14839 -8.2624,-39.58608 -4.0232,-7.43612 -8.3875,-6.76505 -10.4888,1.60316 -2.0996,8.36823 -1.8017,24.21579 1.5344,40.77925 3.3377,16.56347 9.6863,33.35116 17.1575,43.24087 7.4683,9.88971 15.0116,12.70208 21.7462,7.07095 6.7298,-5.63113 11.1422,-19.57122 13.2659,-35.99536 2.1221,-16.42252 1.1883,-34.94311 -1.6096,-47.8662 -2.8012,-12.9231 -8.2112,-19.72178 -11.7668,-17.78067 -3.5523,1.94111 -5.8425,12.64763 -5.1331,27.51504 0.708,14.86739 4.4652,33.47126 10.4664,47.92546 5.9995,14.45419 13.3234,24.432 20.9357,25.62516 7.6122,1.19318 13.9321,-6.44793 18.5447,-19.73778 4.5964,-13.28986 6.4864,-31.94659 5.6856,-48.18973 -0.8169,-16.24155 -4.2603,-29.58265 -8.088,-34.50429 -3.8438,-4.92324 -8.7511,-1.17716 -10.3845,9.49252 -1.6322,10.67129 -0.78,27.98108 2.9772,44.58619 3.7558,16.60511 9.7776,32.11955 17.1288,39.93042 7.3513,7.81087 14.6385,7.68755 21.1408,-0.28348 6.5024,-7.97263 11.179,-23.69686 12.8606,-40.59828 1.6817,-16.89979 0.3684,-34.48667 -2.5946,-45.4334 -2.9627,-10.94675 -7.4311,-14.90425 -10.7625,-10.28852 -3.3153,4.61414 -5.3333,17.70379 -4.4043,33.7051 0.9128,15.99972 4.8208,34.45304 10.8266,47.57954 6.022,13.12489 13.1649,20.52255 20.6283,19.18203 7.4473,-1.34211 14.318,-11.54413 18.4982,-26.32185 4.1801,-14.77771 5.7336,-33.63623 4.8368,-48.83836 -0.881,-15.20213 -5.1251,-26.21775 -8.9049,-28.4199 -3.7957,-2.20218 -7.5754,4.46357 -9.0008,17.13361 -1.4255,12.67165 -0.3523,31.00325 3.5075,47.26243 3.8757,16.25916 9.8017,29.95901 17.1048,35.46523 7.3031,5.5078 14.4942,2.42958 20.8524,-7.68596 6.3743,-10.11552 10.8748,-27.22193 12.4282,-44.12333 1.5535,-16.903 0.1442,-33.10611 -2.8348,-41.82827 -2.9788,-8.72378 -7.3991,-9.67672 -10.6024,-2.49846 -3.2031,7.17664 -5.4453,22.3996 -4.1,39.09439 1.3614,16.6948 5.2372,34.45785 11.3072,45.89788 6.0539,11.44163 13.1487,16.04456 20.5641,12.19277 7.4154,-3.85018 14.1579,-16.31522 18.21,-32.12275 4.036,-15.80912 5.3172,-34.5123 4.0839,-48.25219 -1.2333,-13.74149 -4.9008,-22.0937 -8.6645,-21.57319 -3.7636,0.52051 -7.4633,9.93937 -8.7446,24.28146 -1.2973,14.34207 -0.08,33.20861 3.9078,48.69102 3.988,15.4824 9.8978,26.99291 17.249,30.0455 7.3512,3.05261 15.3751,-2.70825 21.4931,-14.80333 6.118,-12.09669 10.122,-30.12239 11.5312,-46.58175"
       style="fill:none;stroke:#000000;stroke-width:6.40629;stroke-dasharray:none;stroke-opacity:1;paint-order:normal"
       id="path11510" />
    <text
       xml:space="preserve"
       style="white-space:pre;inline-size:55.5704;fill:#000000;fill-opacity:1;stroke:#000000;stroke-width:10;stroke-dasharray:none;stroke-opacity:1;paint-order:normal"
       x="418.72998"
       y="261.81808"
       id="text13068" />
    <g
       inkscape:label=""
       transform="matrix(10.53089,0,0,10.53089,-1366.9117,-478.15047)"
       id="g2877">
      <g
         id="g4375">
        <g
           style="fill:#000000;fill-opacity:1"
           id="g5820">
          <use
             xlink:href="#symbol5046"
             x="301.92499"
             y="93.917999"
             id="use5694"
             width="100%"
             height="100%" />
        </g>
      </g>
    </g>
    <path
       style="fill:none;stroke:#000000;stroke-width:3.20315;stroke-linecap:butt;stroke-linejoin:miter;stroke-miterlimit:4;stroke-dasharray:none;stroke-opacity:1;marker-end:url(#marker6210)"
       d="M 232.58067,565.33442 C 407.33917,430.16849 613.10681,335.34591 829.39794,290.30694 880.56686,279.65188 932.30721,271.74153 984.32232,266.62125"
       id="path5015"
       inkscape:path-effect="#path-effect5017"
       inkscape:original-d="M 232.58067,565.33442 C 431.52137,473.66021 630.46046,381.98437 829.39794,290.30694 1028.3354,198.62952 932.68255,274.51808 984.32232,266.62125" />
    <g
       inkscape:label=""
       transform="matrix(12.07936,0,0,12.07936,-2736.657,-938.65101)"
       id="g6338">
      <g
         id="g8538">
        <g
           style="fill:#000000;fill-opacity:1"
           id="g4252">
          <use
             xlink:href="#symbol9767"
             x="300.68701"
             y="93.917999"
             id="use6587"
             width="100%"
             height="100%" />
        </g>
        <g
           style="fill:#000000;fill-opacity:1"
           id="g7717">
          <use
             xlink:href="#symbol2632"
             x="306.733"
             y="95.717003"
             id="use1189"
             width="100%"
             height="100%" />
        </g>
      </g>
    </g>
  </g>
</svg>
